<svg width="583" height="300" viewBox="0 0 583 300" fill="none" xmlns="http://www.w3.org/2000/svg">
<g clip-path="url(#clip0_115_10)">
<path d="M29.2485 280.294L54.2824 240.567L29.2369 284.622L29.2235 289.149C27.4375 289.128 25.6696 289.06 23.9197 288.944L25.9615 230.793L25.9347 230.343L25.9807 230.257L26.1751 224.762L0 181.221L26.2021 220.647L26.2805 221.811L27.823 177.876L5.3207 132.826L27.9988 170.156L29.0537 79.0893L29.0585 78.7863L29.0622 79.0845L29.5758 150.884L51.0779 122.156L29.5568 157.068L29.457 196.393L49.4078 158.413L29.446 202.175L29.3908 224.041L58.3712 171.159L29.368 231.67L29.2485 280.294Z" fill="#D0CDE1"/>
<path d="M380.63 112.607H373.592V162.577H380.63V112.607Z" fill="#3F3D56"/>
<path d="M120.204 6.26462L117.557 12.7859L377.997 118.495L380.644 111.974L120.204 6.26462Z" fill="#3F3D56"/>
<path d="M582.6 286.908C571.699 305.12 -0.575153 303.591 0.292 286.907C11.1926 268.697 583.467 270.226 582.6 286.908Z" fill="#D0CDE1"/>
<path d="M510.832 213.25H449.602V237.179H510.832V213.25Z" fill="#3F3D56"/>
<path d="M505.202 234.364H203.273V261.108H505.202V234.364Z" fill="#3F3D56"/>
<path d="M455.583 247.736H383.092V156.595H437.284L455.583 202.562V247.736Z" fill="#D0CDE1"/>
<path d="M425.321 162.225H394.354V193.192H425.321V162.225Z" fill="white"/>
<path d="M448.546 193.544H428.84V162.577H437.286L448.546 193.544Z" fill="white"/>
<path d="M402.798 210.787H395.76V224.159H402.798V210.787Z" fill="#3F3D56"/>
<path d="M434.822 182.283H435.174C436.947 182.283 438.648 182.988 439.902 184.242C441.156 185.495 441.86 187.196 441.86 188.969C441.86 190.743 441.156 192.443 439.902 193.697C438.648 194.951 436.947 195.655 435.174 195.655H434.822V182.283Z" fill="#3F3D56"/>
<path d="M173.01 234.364H173.362C175.135 234.364 176.836 235.069 178.089 236.322C179.343 237.576 180.048 239.277 180.048 241.05C180.048 242.823 179.343 244.524 178.089 245.778C176.836 247.032 175.135 247.736 173.362 247.736H173.01V234.364Z" fill="#3F3D56"/>
<path d="M483.734 234.263C494.459 234.263 504.106 239.459 510.8 247.736H524.555L511.182 210.487L448.896 198.203L450.656 247.736H456.669C463.363 239.459 473.009 234.263 483.734 234.263Z" fill="#D0CDE1"/>
<path d="M484.439 287.149C501.348 287.149 515.054 273.442 515.054 256.534C515.054 239.625 501.348 225.919 484.439 225.919C467.531 225.919 453.824 239.625 453.824 256.534C453.824 273.442 467.531 287.149 484.439 287.149Z" fill="#3F3D56"/>
<path d="M484.439 272.647C493.338 272.647 500.553 265.433 500.553 256.534C500.553 247.635 493.338 240.421 484.439 240.421C475.54 240.421 468.326 247.635 468.326 256.534C468.326 265.433 475.54 272.647 484.439 272.647Z" fill="#D0CDE1"/>
<path d="M207.848 286.797C222.618 286.797 234.592 274.823 234.592 260.053C234.592 245.282 222.618 233.308 207.848 233.308C193.077 233.308 181.104 245.282 181.104 260.053C181.104 274.823 193.077 286.797 207.848 286.797Z" fill="#3F3D56"/>
<path d="M207.847 274.129C215.621 274.129 221.923 267.827 221.923 260.053C221.923 252.279 215.621 245.977 207.847 245.977C200.073 245.977 193.771 252.279 193.771 260.053C193.771 267.827 200.073 274.129 207.847 274.129Z" fill="#D0CDE1"/>
<path d="M385.204 143.926H370.424V250.552H385.204V143.926Z" fill="#3F3D56"/>
<path d="M385.203 231.197H172.656V237.531H385.203V231.197Z" fill="#3F3D56"/>
<path d="M290.709 191.381L58.9121 254.443L60.5749 260.555L292.372 197.493L290.709 191.381Z" fill="#3F3D56"/>
<path d="M274.886 199.064L270.916 201.982L295.3 235.163L299.27 232.246L274.886 199.064Z" fill="#3F3D56"/>
<path d="M439.044 194.952H432.006V197.767H439.044V194.952Z" fill="#3F3D56"/>
<path d="M377.11 216.065H284.913C284.743 216.065 284.58 216.004 284.452 215.894C284.324 215.783 284.241 215.63 284.216 215.463C284.192 215.295 284.229 215.125 284.32 214.982C284.411 214.84 284.55 214.735 284.713 214.687L374.798 187.943C374.899 187.913 375.005 187.906 375.108 187.922C375.212 187.939 375.311 187.978 375.397 188.037C375.484 188.097 375.556 188.175 375.608 188.265C375.66 188.356 375.692 188.458 375.7 188.562L377.812 215.306C377.819 215.403 377.807 215.5 377.775 215.592C377.743 215.684 377.693 215.768 377.627 215.839C377.561 215.911 377.481 215.968 377.392 216.006C377.303 216.045 377.207 216.065 377.11 216.065ZM289.756 214.658H376.348L374.365 189.539L289.756 214.658Z" fill="#3F3D56"/>
<path d="M127.445 185.098H127.439L107.234 184.908C107.136 184.907 107.039 184.886 106.949 184.845C106.859 184.804 106.779 184.744 106.714 184.67C106.648 184.596 106.599 184.51 106.57 184.416C106.54 184.321 106.53 184.222 106.542 184.124L117.04 92.5266C117.059 92.3549 117.141 92.1965 117.27 92.0815C117.399 91.9664 117.566 91.9029 117.739 91.9028H117.742C117.915 91.9036 118.082 91.9684 118.211 92.0846C118.339 92.2008 118.421 92.3604 118.439 92.5328L128.145 184.321C128.156 184.419 128.145 184.518 128.115 184.612C128.084 184.706 128.034 184.792 127.968 184.865C127.902 184.939 127.822 184.997 127.732 185.038C127.641 185.078 127.544 185.098 127.445 185.098ZM108.029 183.508L126.662 183.683L117.711 99.0333L108.029 183.508Z" fill="#3F3D56"/>
<path d="M515.785 223.538L515.456 223.662C513.797 224.289 511.958 224.232 510.341 223.503C508.725 222.774 507.464 221.432 506.837 219.774C506.21 218.115 506.267 216.275 506.996 214.659C507.725 213.042 509.067 211.782 510.726 211.155L511.055 211.03L515.785 223.538Z" fill="#3F3D56"/>
<path d="M87.683 227.642L68.0508 233.137L68.923 236.253L88.5553 230.758L87.683 227.642Z" fill="#3F3D56"/>
<path d="M229.845 188.69L226.056 190.759L72.1139 233.848L69.8284 231.009C65.8681 226.15 63.3367 220.286 62.5169 214.072C61.9356 209.432 62.3608 204.541 65.5978 201.564L59.7188 154.148L144.857 130.202L185.238 147.578C185.238 147.578 200.706 142.956 212.088 151.111C215.691 153.695 218.887 157.559 221.047 163.262L222.908 168.638L229.845 188.69Z" fill="#61A199"/>
<path d="M195.816 217.115C206.718 217.115 215.555 208.277 215.555 197.375C215.555 186.473 206.718 177.635 195.816 177.635C184.914 177.635 176.076 186.473 176.076 197.375C176.076 208.277 184.914 217.115 195.816 217.115Z" fill="#3F3D56"/>
<path d="M195.817 207.764C201.555 207.764 206.206 203.113 206.206 197.375C206.206 191.637 201.555 186.986 195.817 186.986C190.079 186.986 185.428 191.637 185.428 197.375C185.428 203.113 190.079 207.764 195.817 207.764Z" fill="#D0CDE1"/>
<path d="M102.019 243.369C112.921 243.369 121.758 234.531 121.758 223.63C121.758 212.728 112.921 203.89 102.019 203.89C91.117 203.89 82.2793 212.728 82.2793 223.63C82.2793 234.531 91.117 243.369 102.019 243.369Z" fill="#3F3D56"/>
<path d="M102.018 234.019C107.756 234.019 112.407 229.367 112.407 223.629C112.407 217.892 107.756 213.24 102.018 213.24C96.2803 213.24 91.6289 217.892 91.6289 223.629C91.6289 229.367 96.2803 234.019 102.018 234.019Z" fill="#D0CDE1"/>
<path d="M171.277 148.125L110.199 165.221L105.053 146.836L144.006 135.932L171.277 148.125Z" fill="white"/>
<path d="M97.5742 148.929L73.2676 155.732L78.4138 174.118L102.72 167.314L97.5742 148.929Z" fill="white"/>
<path d="M117.155 178.06L114.039 178.932L115.696 184.853L118.813 183.981L117.155 178.06Z" fill="#3F3D56"/>
<path d="M167.089 158.371L166.217 155.255L160.296 156.912L161.168 160.028L167.089 158.371Z" fill="#3F3D56"/>
<path d="M159.215 144.646L159.558 144.551C161.285 144.067 163.134 144.29 164.697 145.169C166.26 146.049 167.41 147.513 167.894 149.24C168.377 150.968 168.155 152.816 167.275 154.38C166.395 155.943 164.931 157.093 163.204 157.576L162.861 157.672L159.215 144.646Z" fill="#3F3D56"/>
<path d="M222.908 168.638C220.623 169.553 218.088 169.632 215.751 168.861C213.413 168.09 211.422 166.519 210.129 164.424C208.836 162.33 208.323 159.846 208.682 157.411C209.04 154.975 210.247 152.745 212.088 151.111C215.691 153.695 218.887 157.559 221.047 163.262L222.908 168.638Z" fill="#3F3D56"/>
<path d="M120.927 6.33423H113.889V109.088H120.927V6.33423Z" fill="#3F3D56"/>
<path d="M117.41 19.7063C122.852 19.7063 127.263 15.2949 127.263 9.85315C127.263 4.41141 122.852 0 117.41 0C111.968 0 107.557 4.41141 107.557 9.85315C107.557 15.2949 111.968 19.7063 117.41 19.7063Z" fill="#3F3D56"/>
<path d="M377.109 123.868C382.551 123.868 386.962 119.457 386.962 114.015C386.962 108.573 382.551 104.162 377.109 104.162C371.667 104.162 367.256 108.573 367.256 114.015C367.256 119.457 371.667 123.868 377.109 123.868Z" fill="#3F3D56"/>
</g>
<defs>
<clipPath id="clip0_115_10">
<rect width="582.601" height="300" fill="white"/>
</clipPath>
</defs>
</svg>
